# xmcd CD database file
#
# Track frame offsets:
#	150
#	17250
#	37010
#	50152
#
# Disc length: 840 seconds
#
# Revision: 1
# Processed by: cddbd v1.5.1PL0 Copyright (c) Steve Scherf et al.
# Submitted via: CDex 1.51
#
DISCID=2b034604
DTITLE=Nick Heyward - The Man You Used To Be
DYEAR=1997
DGENRE=Rock
TTITLE0=The Man You Used To Be
TTITLE1=A Beautiful Place
TTITLE2=Time
TTITLE3=Another Stupid Tuesday
EXTD=YEAR: 1997
EXTT0=
EXTT1=
EXTT2=
EXTT3=
PLAYORDER=
